<svg xmlns="http://www.w3.org/2000/svg" xmlns:xlink="http://www.w3.org/1999/xlink" width="1080" zoomAndPan="magnify" viewBox="0 0 810 809.999993" height="1080" preserveAspectRatio="xMidYMid meet" version="1.0"><defs><g/><clipPath id="99739af4a6"><path d="M 137 282 L 265 282 L 265 441 L 137 441 Z M 137 282 " clip-rule="nonzero"/></clipPath><clipPath id="c15f738767"><path d="M 99.472656 324.277344 L 230.339844 250.96875 L 312.8125 398.191406 L 181.945312 471.503906 Z M 99.472656 324.277344 " clip-rule="nonzero"/></clipPath><clipPath id="59914233a5"><path d="M 99.472656 324.277344 L 230.339844 250.96875 L 312.8125 398.191406 L 181.945312 471.503906 Z M 99.472656 324.277344 " clip-rule="nonzero"/></clipPath><clipPath id="efd8954842"><path d="M 199 388 L 207 388 L 207 398 L 199 398 Z M 199 388 " clip-rule="nonzero"/></clipPath><clipPath id="4819983b2a"><path d="M 99.472656 324.277344 L 230.339844 250.96875 L 312.8125 398.191406 L 181.945312 471.503906 Z M 99.472656 324.277344 " clip-rule="nonzero"/></clipPath><clipPath id="80f02b9c52"><path d="M 99.472656 324.277344 L 230.339844 250.96875 L 312.8125 398.191406 L 181.945312 471.503906 Z M 99.472656 324.277344 " clip-rule="nonzero"/></clipPath><clipPath id="3aea342dc1"><path d="M 213 413 L 216 413 L 216 418 L 213 418 Z M 213 413 " clip-rule="nonzero"/></clipPath><clipPath id="bd5656cd73"><path d="M 99.472656 324.277344 L 230.339844 250.96875 L 312.8125 398.191406 L 181.945312 471.503906 Z M 99.472656 324.277344 " clip-rule="nonzero"/></clipPath><clipPath id="c188cdf73b"><path d="M 99.472656 324.277344 L 230.339844 250.96875 L 312.8125 398.191406 L 181.945312 471.503906 Z M 99.472656 324.277344 " clip-rule="nonzero"/></clipPath><clipPath id="18dffe7464"><path d="M 209 408 L 212 408 L 212 411 L 209 411 Z M 209 408 " clip-rule="nonzero"/></clipPath><clipPath id="be8e1c2b73"><path d="M 99.472656 324.277344 L 230.339844 250.96875 L 312.8125 398.191406 L 181.945312 471.503906 Z M 99.472656 324.277344 " clip-rule="nonzero"/></clipPath><clipPath id="d03026e724"><path d="M 99.472656 324.277344 L 230.339844 250.96875 L 312.8125 398.191406 L 181.945312 471.503906 Z M 99.472656 324.277344 " clip-rule="nonzero"/></clipPath><clipPath id="5b47689c36"><path d="M 180 336 L 183 336 L 183 340 L 180 340 Z M 180 336 " clip-rule="nonzero"/></clipPath><clipPath id="7d921a7115"><path d="M 99.472656 324.277344 L 230.339844 250.96875 L 312.8125 398.191406 L 181.945312 471.503906 Z M 99.472656 324.277344 " clip-rule="nonzero"/></clipPath><clipPath id="a05705fcb9"><path d="M 99.472656 324.277344 L 230.339844 250.96875 L 312.8125 398.191406 L 181.945312 471.503906 Z M 99.472656 324.277344 " clip-rule="nonzero"/></clipPath><clipPath id="c37f968fec"><path d="M 176 333 L 179 333 L 179 337 L 176 337 Z M 176 333 " clip-rule="nonzero"/></clipPath><clipPath id="346664cca2"><path d="M 99.472656 324.277344 L 230.339844 250.96875 L 312.8125 398.191406 L 181.945312 471.503906 Z M 99.472656 324.277344 " clip-rule="nonzero"/></clipPath><clipPath id="281e3d4655"><path d="M 99.472656 324.277344 L 230.339844 250.96875 L 312.8125 398.191406 L 181.945312 471.503906 Z M 99.472656 324.277344 " clip-rule="nonzero"/></clipPath><clipPath id="47f9627af2"><path d="M 184 339 L 187 339 L 187 341 L 184 341 Z M 184 339 " clip-rule="nonzero"/></clipPath><clipPath id="b48bd91a82"><path d="M 99.472656 324.277344 L 230.339844 250.96875 L 312.8125 398.191406 L 181.945312 471.503906 Z M 99.472656 324.277344 " clip-rule="nonzero"/></clipPath><clipPath id="86ee030d4f"><path d="M 99.472656 324.277344 L 230.339844 250.96875 L 312.8125 398.191406 L 181.945312 471.503906 Z M 99.472656 324.277344 " clip-rule="nonzero"/></clipPath><clipPath id="8b3b729a05"><path d="M 180 342 L 182 342 L 182 344 L 180 344 Z M 180 342 " clip-rule="nonzero"/></clipPath><clipPath id="4f9f47f5f6"><path d="M 99.472656 324.277344 L 230.339844 250.96875 L 312.8125 398.191406 L 181.945312 471.503906 Z M 99.472656 324.277344 " clip-rule="nonzero"/></clipPath><clipPath id="7f346cc1b5"><path d="M 99.472656 324.277344 L 230.339844 250.96875 L 312.8125 398.191406 L 181.945312 471.503906 Z M 99.472656 324.277344 " clip-rule="nonzero"/></clipPath><clipPath id="c5edabd765"><path d="M 178 330 L 180 330 L 180 333 L 178 333 Z M 178 330 " clip-rule="nonzero"/></clipPath><clipPath id="a4a3b16af1"><path d="M 99.472656 324.277344 L 230.339844 250.96875 L 312.8125 398.191406 L 181.945312 471.503906 Z M 99.472656 324.277344 " clip-rule="nonzero"/></clipPath><clipPath id="e84ffd0e11"><path d="M 99.472656 324.277344 L 230.339844 250.96875 L 312.8125 398.191406 L 181.945312 471.503906 Z M 99.472656 324.277344 " clip-rule="nonzero"/></clipPath><clipPath id="9422e093a0"><path d="M 179 334 L 182 334 L 182 336 L 179 336 Z M 179 334 " clip-rule="nonzero"/></clipPath><clipPath id="b9e19aff9c"><path d="M 99.472656 324.277344 L 230.339844 250.96875 L 312.8125 398.191406 L 181.945312 471.503906 Z M 99.472656 324.277344 " clip-rule="nonzero"/></clipPath><clipPath id="34502564e0"><path d="M 99.472656 324.277344 L 230.339844 250.96875 L 312.8125 398.191406 L 181.945312 471.503906 Z M 99.472656 324.277344 " clip-rule="nonzero"/></clipPath><clipPath id="c9e356857f"><path d="M 234 332 L 236 332 L 236 334 L 234 334 Z M 234 332 " clip-rule="nonzero"/></clipPath><clipPath id="3146acfc2c"><path d="M 99.472656 324.277344 L 230.339844 250.96875 L 312.8125 398.191406 L 181.945312 471.503906 Z M 99.472656 324.277344 " clip-rule="nonzero"/></clipPath><clipPath id="fa9f03d30d"><path d="M 99.472656 324.277344 L 230.339844 250.96875 L 312.8125 398.191406 L 181.945312 471.503906 Z M 99.472656 324.277344 " clip-rule="nonzero"/></clipPath><clipPath id="5776433066"><path d="M 195 380 L 197 380 L 197 382 L 195 382 Z M 195 380 " clip-rule="nonzero"/></clipPath><clipPath id="7595a77ec7"><path d="M 99.472656 324.277344 L 230.339844 250.96875 L 312.8125 398.191406 L 181.945312 471.503906 Z M 99.472656 324.277344 " clip-rule="nonzero"/></clipPath><clipPath id="f1b39adcbc"><path d="M 99.472656 324.277344 L 230.339844 250.96875 L 312.8125 398.191406 L 181.945312 471.503906 Z M 99.472656 324.277344 " clip-rule="nonzero"/></clipPath><clipPath id="f9da43af7d"><path d="M 210 412 L 211 412 L 211 414 L 210 414 Z M 210 412 " clip-rule="nonzero"/></clipPath><clipPath id="0954f13fa0"><path d="M 99.472656 324.277344 L 230.339844 250.96875 L 312.8125 398.191406 L 181.945312 471.503906 Z M 99.472656 324.277344 " clip-rule="nonzero"/></clipPath><clipPath id="4a7d82b1f5"><path d="M 99.472656 324.277344 L 230.339844 250.96875 L 312.8125 398.191406 L 181.945312 471.503906 Z M 99.472656 324.277344 " clip-rule="nonzero"/></clipPath><clipPath id="1b8ef03d3a"><path d="M 165 297 L 167 297 L 167 299 L 165 299 Z M 165 297 " clip-rule="nonzero"/></clipPath><clipPath id="4b1dcad0e1"><path d="M 99.472656 324.277344 L 230.339844 250.96875 L 312.8125 398.191406 L 181.945312 471.503906 Z M 99.472656 324.277344 " clip-rule="nonzero"/></clipPath><clipPath id="5fbbd90985"><path d="M 99.472656 324.277344 L 230.339844 250.96875 L 312.8125 398.191406 L 181.945312 471.503906 Z M 99.472656 324.277344 " clip-rule="nonzero"/></clipPath><clipPath id="70e7d54aad"><path d="M 165 298 L 167 298 L 167 301 L 165 301 Z M 165 298 " clip-rule="nonzero"/></clipPath><clipPath id="e2c2e4e71e"><path d="M 99.472656 324.277344 L 230.339844 250.96875 L 312.8125 398.191406 L 181.945312 471.503906 Z M 99.472656 324.277344 " clip-rule="nonzero"/></clipPath><clipPath id="cd0c53d526"><path d="M 99.472656 324.277344 L 230.339844 250.96875 L 312.8125 398.191406 L 181.945312 471.503906 Z M 99.472656 324.277344 " clip-rule="nonzero"/></clipPath><clipPath id="b81bc21e01"><path d="M 167 308 L 170 308 L 170 310 L 167 310 Z M 167 308 " clip-rule="nonzero"/></clipPath><clipPath id="60129a63bb"><path d="M 99.472656 324.277344 L 230.339844 250.96875 L 312.8125 398.191406 L 181.945312 471.503906 Z M 99.472656 324.277344 " clip-rule="nonzero"/></clipPath><clipPath id="8542c397d0"><path d="M 99.472656 324.277344 L 230.339844 250.96875 L 312.8125 398.191406 L 181.945312 471.503906 Z M 99.472656 324.277344 " clip-rule="nonzero"/></clipPath><clipPath id="42c9f55c3c"><path d="M 176 331 L 178 331 L 178 333 L 176 333 Z M 176 331 " clip-rule="nonzero"/></clipPath><clipPath id="8a1b363004"><path d="M 99.472656 324.277344 L 230.339844 250.96875 L 312.8125 398.191406 L 181.945312 471.503906 Z M 99.472656 324.277344 " clip-rule="nonzero"/></clipPath><clipPath id="97b3880a11"><path d="M 99.472656 324.277344 L 230.339844 250.96875 L 312.8125 398.191406 L 181.945312 471.503906 Z M 99.472656 324.277344 " clip-rule="nonzero"/></clipPath><clipPath id="6a762a411f"><path d="M 177 332 L 180 332 L 180 334 L 177 334 Z M 177 332 " clip-rule="nonzero"/></clipPath><clipPath id="88f4e12e54"><path d="M 99.472656 324.277344 L 230.339844 250.96875 L 312.8125 398.191406 L 181.945312 471.503906 Z M 99.472656 324.277344 " clip-rule="nonzero"/></clipPath><clipPath id="1c5b73e3b3"><path d="M 99.472656 324.277344 L 230.339844 250.96875 L 312.8125 398.191406 L 181.945312 471.503906 Z M 99.472656 324.277344 " clip-rule="nonzero"/></clipPath><clipPath id="f422fe00d1"><path d="M 239 329 L 240 329 L 240 331 L 239 331 Z M 239 329 " clip-rule="nonzero"/></clipPath><clipPath id="c6635ccd92"><path d="M 99.472656 324.277344 L 230.339844 250.96875 L 312.8125 398.191406 L 181.945312 471.503906 Z M 99.472656 324.277344 " clip-rule="nonzero"/></clipPath><clipPath id="ecc1ea079e"><path d="M 99.472656 324.277344 L 230.339844 250.96875 L 312.8125 398.191406 L 181.945312 471.503906 Z M 99.472656 324.277344 " clip-rule="nonzero"/></clipPath><clipPath id="469c953429"><path d="M 175 322 L 176 322 L 176 323 L 175 323 Z M 175 322 " clip-rule="nonzero"/></clipPath><clipPath id="2f561cbceb"><path d="M 99.472656 324.277344 L 230.339844 250.96875 L 312.8125 398.191406 L 181.945312 471.503906 Z M 99.472656 324.277344 " clip-rule="nonzero"/></clipPath><clipPath id="dffc47aa77"><path d="M 99.472656 324.277344 L 230.339844 250.96875 L 312.8125 398.191406 L 181.945312 471.503906 Z M 99.472656 324.277344 " clip-rule="nonzero"/></clipPath><clipPath id="f077a3221b"><path d="M 215 421 L 216 421 L 216 422 L 215 422 Z M 215 421 " clip-rule="nonzero"/></clipPath><clipPath id="cee0d0c0d1"><path d="M 99.472656 324.277344 L 230.339844 250.96875 L 312.8125 398.191406 L 181.945312 471.503906 Z M 99.472656 324.277344 " clip-rule="nonzero"/></clipPath><clipPath id="8f5c64f72a"><path d="M 99.472656 324.277344 L 230.339844 250.96875 L 312.8125 398.191406 L 181.945312 471.503906 Z M 99.472656 324.277344 " clip-rule="nonzero"/></clipPath><clipPath id="bb2b91e95a"><path d="M 222 425 L 224 425 L 224 426 L 222 426 Z M 222 425 " clip-rule="nonzero"/></clipPath><clipPath id="92143fa21c"><path d="M 99.472656 324.277344 L 230.339844 250.96875 L 312.8125 398.191406 L 181.945312 471.503906 Z M 99.472656 324.277344 " clip-rule="nonzero"/></clipPath><clipPath id="1d852acf80"><path d="M 99.472656 324.277344 L 230.339844 250.96875 L 312.8125 398.191406 L 181.945312 471.503906 Z M 99.472656 324.277344 " clip-rule="nonzero"/></clipPath><clipPath id="4ff7c3f2d3"><path d="M 221 431 L 222 431 L 222 432 L 221 432 Z M 221 431 " clip-rule="nonzero"/></clipPath><clipPath id="5b3bf03d9b"><path d="M 99.472656 324.277344 L 230.339844 250.96875 L 312.8125 398.191406 L 181.945312 471.503906 Z M 99.472656 324.277344 " clip-rule="nonzero"/></clipPath><clipPath id="83a561131a"><path d="M 99.472656 324.277344 L 230.339844 250.96875 L 312.8125 398.191406 L 181.945312 471.503906 Z M 99.472656 324.277344 " clip-rule="nonzero"/></clipPath><clipPath id="cf4a83a739"><path d="M 228 434 L 229 434 L 229 435 L 228 435 Z M 228 434 " clip-rule="nonzero"/></clipPath><clipPath id="f4e32b6c46"><path d="M 99.472656 324.277344 L 230.339844 250.96875 L 312.8125 398.191406 L 181.945312 471.503906 Z M 99.472656 324.277344 " clip-rule="nonzero"/></clipPath><clipPath id="fd664fd795"><path d="M 99.472656 324.277344 L 230.339844 250.96875 L 312.8125 398.191406 L 181.945312 471.503906 Z M 99.472656 324.277344 " clip-rule="nonzero"/></clipPath><clipPath id="b38b67ce50"><path d="M 230 434 L 232 434 L 232 436 L 230 436 Z M 230 434 " clip-rule="nonzero"/></clipPath><clipPath id="ce6e25fbdf"><path d="M 99.472656 324.277344 L 230.339844 250.96875 L 312.8125 398.191406 L 181.945312 471.503906 Z M 99.472656 324.277344 " clip-rule="nonzero"/></clipPath><clipPath id="44aa497374"><path d="M 99.472656 324.277344 L 230.339844 250.96875 L 312.8125 398.191406 L 181.945312 471.503906 Z M 99.472656 324.277344 " clip-rule="nonzero"/></clipPath><clipPath id="51479451ed"><path d="M 233 440 L 234 440 L 234 441 L 233 441 Z M 233 440 " clip-rule="nonzero"/></clipPath><clipPath id="8754447b92"><path d="M 99.472656 324.277344 L 230.339844 250.96875 L 312.8125 398.191406 L 181.945312 471.503906 Z M 99.472656 324.277344 " clip-rule="nonzero"/></clipPath><clipPath id="94989ea09a"><path d="M 99.472656 324.277344 L 230.339844 250.96875 L 312.8125 398.191406 L 181.945312 471.503906 Z M 99.472656 324.277344 " clip-rule="nonzero"/></clipPath></defs><g fill="#f3f5f4" fill-opacity="1"><g transform="translate(266.63551, 374.623164)"><g><path d="M 47.375 -25.265625 C 47.375 -17.097656 45.050781 -10.84375 40.40625 -6.5 C 35.757812 -2.164062 29.050781 0 20.28125 0 L 6.234375 0 L 6.234375 -49.578125 L 21.8125 -49.578125 C 29.90625 -49.578125 36.1875 -47.441406 40.65625 -43.171875 C 45.132812 -38.898438 47.375 -32.929688 47.375 -25.265625 Z M 36.453125 -25 C 36.453125 -35.644531 31.75 -40.96875 22.34375 -40.96875 L 16.75 -40.96875 L 16.75 -8.6875 L 21.265625 -8.6875 C 31.390625 -8.6875 36.453125 -14.125 36.453125 -25 Z M 36.453125 -25 "/></g></g></g><g fill="#f3f5f4" fill-opacity="1"><g transform="translate(318.035785, 374.623164)"><g><path d="M 6.234375 0 L 6.234375 -49.578125 L 16.75 -49.578125 L 16.75 0 Z M 6.234375 0 "/></g></g></g><g fill="#f3f5f4" fill-opacity="1"><g transform="translate(341.023507, 374.623164)"><g><path d="M 27.296875 -41.546875 C 23.335938 -41.546875 20.273438 -40.054688 18.109375 -37.078125 C 15.941406 -34.109375 14.859375 -29.96875 14.859375 -24.65625 C 14.859375 -13.601562 19.003906 -8.078125 27.296875 -8.078125 C 30.773438 -8.078125 34.992188 -8.945312 39.953125 -10.6875 L 39.953125 -1.859375 C 35.878906 -0.171875 31.332031 0.671875 26.3125 0.671875 C 19.101562 0.671875 13.585938 -1.515625 9.765625 -5.890625 C 5.941406 -10.265625 4.03125 -16.539062 4.03125 -24.71875 C 4.03125 -29.875 4.96875 -34.390625 6.84375 -38.265625 C 8.726562 -42.148438 11.425781 -45.125 14.9375 -47.1875 C 18.457031 -49.257812 22.578125 -50.296875 27.296875 -50.296875 C 32.109375 -50.296875 36.945312 -49.128906 41.8125 -46.796875 L 38.421875 -38.25 C 36.566406 -39.132812 34.703125 -39.90625 32.828125 -40.5625 C 30.953125 -41.21875 29.109375 -41.546875 27.296875 -41.546875 Z M 27.296875 -41.546875 "/></g></g></g><g fill="#f3f5f4" fill-opacity="1"><g transform="translate(385.269794, 374.623164)"><g><path d="M 36.59375 0 L 33 -11.796875 L 14.921875 -11.796875 L 11.328125 0 L 0 0 L 17.5 -49.78125 L 30.359375 -49.78125 L 47.921875 0 Z M 30.484375 -20.625 C 27.160156 -31.3125 25.289062 -37.351562 24.875 -38.75 C 24.457031 -40.15625 24.15625 -41.265625 23.96875 -42.078125 C 23.226562 -39.191406 21.09375 -32.039062 17.5625 -20.625 Z M 30.484375 -20.625 "/></g></g></g><g fill="#f3f5f4" fill-opacity="1"><g transform="translate(433.177843, 374.623164)"><g><path d="M 35.5 -13.765625 C 35.5 -9.285156 33.890625 -5.757812 30.671875 -3.1875 C 27.453125 -0.613281 22.972656 0.671875 17.234375 0.671875 C 11.941406 0.671875 7.257812 -0.320312 3.1875 -2.3125 L 3.1875 -12.078125 C 6.53125 -10.578125 9.359375 -9.519531 11.671875 -8.90625 C 13.992188 -8.300781 16.117188 -8 18.046875 -8 C 20.347656 -8 22.113281 -8.441406 23.34375 -9.328125 C 24.582031 -10.210938 25.203125 -11.523438 25.203125 -13.265625 C 25.203125 -14.234375 24.925781 -15.09375 24.375 -15.84375 C 23.832031 -16.601562 23.035156 -17.332031 21.984375 -18.03125 C 20.941406 -18.738281 18.800781 -19.863281 15.5625 -21.40625 C 12.53125 -22.820312 10.257812 -24.1875 8.75 -25.5 C 7.238281 -26.8125 6.03125 -28.335938 5.125 -30.078125 C 4.21875 -31.816406 3.765625 -33.851562 3.765625 -36.1875 C 3.765625 -40.570312 5.25 -44.019531 8.21875 -46.53125 C 11.195312 -49.039062 15.304688 -50.296875 20.546875 -50.296875 C 23.128906 -50.296875 25.585938 -49.988281 27.921875 -49.375 C 30.265625 -48.769531 32.710938 -47.910156 35.265625 -46.796875 L 31.875 -38.625 C 29.226562 -39.707031 27.039062 -40.460938 25.3125 -40.890625 C 23.582031 -41.328125 21.882812 -41.546875 20.21875 -41.546875 C 18.226562 -41.546875 16.703125 -41.082031 15.640625 -40.15625 C 14.578125 -39.226562 14.046875 -38.019531 14.046875 -36.53125 C 14.046875 -35.601562 14.257812 -34.789062 14.6875 -34.09375 C 15.113281 -33.40625 15.796875 -32.738281 16.734375 -32.09375 C 17.671875 -31.445312 19.894531 -30.289062 23.40625 -28.625 C 28.039062 -26.40625 31.210938 -24.179688 32.921875 -21.953125 C 34.640625 -19.734375 35.5 -17.003906 35.5 -13.765625 Z M 35.5 -13.765625 "/></g></g></g><g fill="#f3f5f4" fill-opacity="1"><g transform="translate(471.422903, 374.623164)"><g/></g></g><g fill="#f3f5f4" fill-opacity="1"><g transform="translate(489.460467, 374.623164)"><g><path d="M 47.375 -25.265625 C 47.375 -17.097656 45.050781 -10.84375 40.40625 -6.5 C 35.757812 -2.164062 29.050781 0 20.28125 0 L 6.234375 0 L 6.234375 -49.578125 L 21.8125 -49.578125 C 29.90625 -49.578125 36.1875 -47.441406 40.65625 -43.171875 C 45.132812 -38.898438 47.375 -32.929688 47.375 -25.265625 Z M 36.453125 -25 C 36.453125 -35.644531 31.75 -40.96875 22.34375 -40.96875 L 16.75 -40.96875 L 16.75 -8.6875 L 21.265625 -8.6875 C 31.390625 -8.6875 36.453125 -14.125 36.453125 -25 Z M 36.453125 -25 "/></g></g></g><g fill="#f3f5f4" fill-opacity="1"><g transform="translate(540.860727, 374.623164)"><g><path d="M 34.796875 0 L 6.234375 0 L 6.234375 -49.578125 L 34.796875 -49.578125 L 34.796875 -40.96875 L 16.75 -40.96875 L 16.75 -30.078125 L 33.546875 -30.078125 L 33.546875 -21.46875 L 16.75 -21.46875 L 16.75 -8.6875 L 34.796875 -8.6875 Z M 34.796875 0 "/></g></g></g><g fill="#f3f5f4" fill-opacity="1"><g transform="translate(579.760564, 374.623164)"><g/></g></g><g fill="#f3f5f4" fill-opacity="1"><g transform="translate(127.822942, 471.561607)"><g><path d="M 35.5 -13.765625 C 35.5 -9.285156 33.890625 -5.757812 30.671875 -3.1875 C 27.453125 -0.613281 22.972656 0.671875 17.234375 0.671875 C 11.941406 0.671875 7.257812 -0.320312 3.1875 -2.3125 L 3.1875 -12.078125 C 6.53125 -10.578125 9.359375 -9.519531 11.671875 -8.90625 C 13.992188 -8.300781 16.117188 -8 18.046875 -8 C 20.347656 -8 22.113281 -8.441406 23.34375 -9.328125 C 24.582031 -10.210938 25.203125 -11.523438 25.203125 -13.265625 C 25.203125 -14.234375 24.925781 -15.09375 24.375 -15.84375 C 23.832031 -16.601562 23.035156 -17.332031 21.984375 -18.03125 C 20.941406 -18.738281 18.800781 -19.863281 15.5625 -21.40625 C 12.53125 -22.820312 10.257812 -24.1875 8.75 -25.5 C 7.238281 -26.8125 6.03125 -28.335938 5.125 -30.078125 C 4.21875 -31.816406 3.765625 -33.851562 3.765625 -36.1875 C 3.765625 -40.570312 5.25 -44.019531 8.21875 -46.53125 C 11.195312 -49.039062 15.304688 -50.296875 20.546875 -50.296875 C 23.128906 -50.296875 25.585938 -49.988281 27.921875 -49.375 C 30.265625 -48.769531 32.710938 -47.910156 35.265625 -46.796875 L 31.875 -38.625 C 29.226562 -39.707031 27.039062 -40.460938 25.3125 -40.890625 C 23.582031 -41.328125 21.882812 -41.546875 20.21875 -41.546875 C 18.226562 -41.546875 16.703125 -41.082031 15.640625 -40.15625 C 14.578125 -39.226562 14.046875 -38.019531 14.046875 -36.53125 C 14.046875 -35.601562 14.257812 -34.789062 14.6875 -34.09375 C 15.113281 -33.40625 15.796875 -32.738281 16.734375 -32.09375 C 17.671875 -31.445312 19.894531 -30.289062 23.40625 -28.625 C 28.039062 -26.40625 31.210938 -24.179688 32.921875 -21.953125 C 34.640625 -19.734375 35.5 -17.003906 35.5 -13.765625 Z M 35.5 -13.765625 "/></g></g></g><g fill="#f3f5f4" fill-opacity="1"><g transform="translate(166.068002, 471.561607)"><g><path d="M 46.59375 -49.578125 L 46.59375 -17.5 C 46.59375 -13.832031 45.769531 -10.617188 44.125 -7.859375 C 42.488281 -5.109375 40.125 -3 37.03125 -1.53125 C 33.9375 -0.0625 30.273438 0.671875 26.046875 0.671875 C 19.671875 0.671875 14.71875 -0.957031 11.1875 -4.21875 C 7.664062 -7.488281 5.90625 -11.960938 5.90625 -17.640625 L 5.90625 -49.578125 L 16.375 -49.578125 L 16.375 -19.234375 C 16.375 -15.410156 17.140625 -12.601562 18.671875 -10.8125 C 20.210938 -9.03125 22.757812 -8.140625 26.3125 -8.140625 C 29.75 -8.140625 32.238281 -9.035156 33.78125 -10.828125 C 35.332031 -12.628906 36.109375 -15.453125 36.109375 -19.296875 L 36.109375 -49.578125 Z M 46.59375 -49.578125 "/></g></g></g><g fill="#f3f5f4" fill-opacity="1"><g transform="translate(218.553244, 471.561607)"><g><path d="M 16.75 -26.25 L 20.21875 -26.25 C 23.445312 -26.25 25.863281 -26.882812 27.46875 -28.15625 C 29.070312 -29.4375 29.875 -31.300781 29.875 -33.75 C 29.875 -36.207031 29.203125 -38.023438 27.859375 -39.203125 C 26.515625 -40.378906 24.40625 -40.96875 21.53125 -40.96875 L 16.75 -40.96875 Z M 40.484375 -34.109375 C 40.484375 -28.773438 38.816406 -24.695312 35.484375 -21.875 C 32.148438 -19.050781 27.410156 -17.640625 21.265625 -17.640625 L 16.75 -17.640625 L 16.75 0 L 6.234375 0 L 6.234375 -49.578125 L 22.078125 -49.578125 C 28.085938 -49.578125 32.65625 -48.28125 35.78125 -45.6875 C 38.914062 -43.101562 40.484375 -39.242188 40.484375 -34.109375 Z M 40.484375 -34.109375 "/></g></g></g><g fill="#f3f5f4" fill-opacity="1"><g transform="translate(262.155324, 471.561607)"><g><path d="M 6.234375 0 L 6.234375 -49.578125 L 16.75 -49.578125 L 16.75 -8.6875 L 36.859375 -8.6875 L 36.859375 0 Z M 6.234375 0 "/></g></g></g><g fill="#f3f5f4" fill-opacity="1"><g transform="translate(301.383643, 471.561607)"><g><path d="M 34.796875 0 L 6.234375 0 L 6.234375 -49.578125 L 34.796875 -49.578125 L 34.796875 -40.96875 L 16.75 -40.96875 L 16.75 -30.078125 L 33.546875 -30.078125 L 33.546875 -21.46875 L 16.75 -21.46875 L 16.75 -8.6875 L 34.796875 -8.6875 Z M 34.796875 0 "/></g></g></g><g fill="#f3f5f4" fill-opacity="1"><g transform="translate(340.27291, 471.561607)"><g><path d="M 27.234375 0 L 15.296875 -38.890625 L 14.984375 -38.890625 C 15.421875 -30.984375 15.640625 -25.707031 15.640625 -23.0625 L 15.640625 0 L 6.234375 0 L 6.234375 -49.578125 L 20.546875 -49.578125 L 32.28125 -11.671875 L 32.484375 -11.671875 L 44.9375 -49.578125 L 59.25 -49.578125 L 59.25 0 L 49.4375 0 L 49.4375 -23.46875 C 49.4375 -24.570312 49.453125 -25.847656 49.484375 -27.296875 C 49.523438 -28.742188 49.679688 -32.585938 49.953125 -38.828125 L 49.640625 -38.828125 L 36.859375 0 Z M 27.234375 0 "/></g></g></g><g fill="#f3f5f4" fill-opacity="1"><g transform="translate(405.743849, 471.561607)"><g><path d="M 34.796875 0 L 6.234375 0 L 6.234375 -49.578125 L 34.796875 -49.578125 L 34.796875 -40.96875 L 16.75 -40.96875 L 16.75 -30.078125 L 33.546875 -30.078125 L 33.546875 -21.46875 L 16.75 -21.46875 L 16.75 -8.6875 L 34.796875 -8.6875 Z M 34.796875 0 "/></g></g></g><g fill="#f3f5f4" fill-opacity="1"><g transform="translate(444.633116, 471.561607)"><g><path d="M 50.21875 0 L 36.859375 0 L 15.296875 -37.5 L 14.984375 -37.5 C 15.421875 -30.882812 15.640625 -26.160156 15.640625 -23.328125 L 15.640625 0 L 6.234375 0 L 6.234375 -49.578125 L 19.5 -49.578125 L 41.03125 -12.453125 L 41.265625 -12.453125 C 40.929688 -18.890625 40.765625 -23.441406 40.765625 -26.109375 L 40.765625 -49.578125 L 50.21875 -49.578125 Z M 50.21875 0 "/></g></g></g><g fill="#f3f5f4" fill-opacity="1"><g transform="translate(501.085289, 471.561607)"><g><path d="M 25.359375 0 L 14.859375 0 L 14.859375 -40.828125 L 1.390625 -40.828125 L 1.390625 -49.578125 L 38.828125 -49.578125 L 38.828125 -40.828125 L 25.359375 -40.828125 Z M 25.359375 0 "/></g></g></g><g fill="#f3f5f4" fill-opacity="1"><g transform="translate(541.296835, 471.561607)"><g><path d="M 36.59375 0 L 33 -11.796875 L 14.921875 -11.796875 L 11.328125 0 L 0 0 L 17.5 -49.78125 L 30.359375 -49.78125 L 47.921875 0 Z M 30.484375 -20.625 C 27.160156 -31.3125 25.289062 -37.351562 24.875 -38.75 C 24.457031 -40.15625 24.15625 -41.265625 23.96875 -42.078125 C 23.226562 -39.191406 21.09375 -32.039062 17.5625 -20.625 Z M 30.484375 -20.625 "/></g></g></g><g fill="#f3f5f4" fill-opacity="1"><g transform="translate(589.204899, 471.561607)"><g><path d="M 27.296875 -41.546875 C 23.335938 -41.546875 20.273438 -40.054688 18.109375 -37.078125 C 15.941406 -34.109375 14.859375 -29.96875 14.859375 -24.65625 C 14.859375 -13.601562 19.003906 -8.078125 27.296875 -8.078125 C 30.773438 -8.078125 34.992188 -8.945312 39.953125 -10.6875 L 39.953125 -1.859375 C 35.878906 -0.171875 31.332031 0.671875 26.3125 0.671875 C 19.101562 0.671875 13.585938 -1.515625 9.765625 -5.890625 C 5.941406 -10.265625 4.03125 -16.539062 4.03125 -24.71875 C 4.03125 -29.875 4.96875 -34.390625 6.84375 -38.265625 C 8.726562 -42.148438 11.425781 -45.125 14.9375 -47.1875 C 18.457031 -49.257812 22.578125 -50.296875 27.296875 -50.296875 C 32.109375 -50.296875 36.945312 -49.128906 41.8125 -46.796875 L 38.421875 -38.25 C 36.566406 -39.132812 34.703125 -39.90625 32.828125 -40.5625 C 30.953125 -41.21875 29.109375 -41.546875 27.296875 -41.546875 Z M 32.515625 8.484375 C 32.515625 11.367188 31.660156 13.457031 29.953125 14.75 C 28.242188 16.039062 25.609375 16.6875 22.046875 16.6875 C 20.273438 16.6875 18.625 16.445312 17.09375 15.96875 L 17.09375 10.28125 C 17.695312 10.4375 18.515625 10.59375 19.546875 10.75 C 20.578125 10.90625 21.375 10.984375 21.9375 10.984375 C 23.5625 10.984375 24.375 10.285156 24.375 8.890625 C 24.375 7.015625 22.5 5.789062 18.75 5.21875 L 21.390625 0 L 27.9375 0 L 27.03125 2.0625 C 28.695312 2.601562 30.023438 3.445312 31.015625 4.59375 C 32.015625 5.738281 32.515625 7.035156 32.515625 8.484375 Z M 32.515625 8.484375 "/></g></g></g><g fill="#f3f5f4" fill-opacity="1"><g transform="translate(633.451171, 471.561607)"><g><path d="M 36.59375 0 L 33 -11.796875 L 14.921875 -11.796875 L 11.328125 0 L 0 0 L 17.5 -49.78125 L 30.359375 -49.78125 L 47.921875 0 Z M 30.484375 -20.625 C 27.160156 -31.3125 25.289062 -37.351562 24.875 -38.75 C 24.457031 -40.15625 24.15625 -41.265625 23.96875 -42.078125 C 23.226562 -39.191406 21.09375 -32.039062 17.5625 -20.625 Z M 18.421875 -57.109375 C 17.722656 -57.109375 17.050781 -56.804688 16.40625 -56.203125 C 15.757812 -55.609375 15.289062 -54.703125 15 -53.484375 L 9.9375 -53.484375 C 10.1875 -56.765625 11.117188 -59.332031 12.734375 -61.1875 C 14.359375 -63.039062 16.503906 -63.96875 19.171875 -63.96875 C 20.097656 -63.96875 21.003906 -63.78125 21.890625 -63.40625 C 22.785156 -63.03125 23.664062 -62.625 24.53125 -62.1875 C 25.40625 -61.75 26.257812 -61.347656 27.09375 -60.984375 C 27.9375 -60.617188 28.765625 -60.4375 29.578125 -60.4375 C 30.273438 -60.4375 30.945312 -60.726562 31.59375 -61.3125 C 32.238281 -61.90625 32.707031 -62.8125 33 -64.03125 L 38.0625 -64.03125 C 37.8125 -60.75 36.863281 -58.179688 35.21875 -56.328125 C 33.582031 -54.472656 31.453125 -53.546875 28.828125 -53.546875 C 27.898438 -53.546875 26.988281 -53.734375 26.09375 -54.109375 C 25.207031 -54.484375 24.328125 -54.890625 23.453125 -55.328125 C 22.585938 -55.773438 21.734375 -56.179688 20.890625 -56.546875 C 20.054688 -56.921875 19.234375 -57.109375 18.421875 -57.109375 Z M 18.421875 -57.109375 "/></g></g></g><g fill="#f3f5f4" fill-opacity="1"><g transform="translate(681.359235, 471.561607)"><g><path d="M 51.234375 -24.859375 C 51.234375 -16.648438 49.195312 -10.34375 45.125 -5.9375 C 41.0625 -1.53125 35.234375 0.671875 27.640625 0.671875 C 20.046875 0.671875 14.210938 -1.53125 10.140625 -5.9375 C 6.066406 -10.34375 4.03125 -16.671875 4.03125 -24.921875 C 4.03125 -33.171875 6.070312 -39.472656 10.15625 -43.828125 C 14.238281 -48.179688 20.085938 -50.359375 27.703125 -50.359375 C 35.328125 -50.359375 41.15625 -48.164062 45.1875 -43.78125 C 49.21875 -39.394531 51.234375 -33.085938 51.234375 -24.859375 Z M 15.0625 -24.859375 C 15.0625 -19.316406 16.109375 -15.144531 18.203125 -12.34375 C 20.304688 -9.539062 23.453125 -8.140625 27.640625 -8.140625 C 36.023438 -8.140625 40.21875 -13.710938 40.21875 -24.859375 C 40.21875 -36.023438 36.046875 -41.609375 27.703125 -41.609375 C 23.523438 -41.609375 20.375 -40.203125 18.25 -37.390625 C 16.125 -34.578125 15.0625 -30.398438 15.0625 -24.859375 Z M 15.0625 -24.859375 "/></g></g></g><g clip-path="url(#99739af4a6)"><g clip-path="url(#c15f738767)"><g clip-path="url(#59914233a5)"><path fill="#ffb725" d="M 233.550781 440.105469 C 233.453125 439.472656 233.347656 438.835938 233.246094 438.199219 L 233.5 437.960938 C 233.5 437.960938 233.386719 438.242188 233.386719 438.242188 C 231.148438 440.867188 229.550781 437.746094 231.023438 435.714844 L 230.886719 435.660156 C 232.339844 435.550781 232.773438 434.644531 231.242188 434.398438 L 231.390625 434.417969 C 230.347656 433.84375 229.28125 433.59375 228.152344 434.167969 L 228.292969 434.207031 C 227.167969 433.210938 226.027344 432.226562 224.921875 431.207031 C 224.488281 430.804688 225.425781 429.695312 224.289062 429.695312 C 223.859375 429.695312 223.46875 430.371094 222.992188 430.601562 C 222.519531 430.832031 221.964844 430.890625 221.445312 431.027344 C 221.445312 431.027344 221.585938 431.0625 221.585938 431.0625 C 220.644531 428.042969 225.808594 429.351562 223.242188 425.261719 L 223.203125 425.402344 C 223.65625 424.925781 225.191406 423.382812 223.761719 423.25 C 221.96875 423.359375 220.894531 421.890625 219.140625 422.03125 C 219.375 425.5625 216.878906 422.453125 215.414062 421.765625 L 215.371094 421.910156 C 217.152344 420.996094 219.417969 421.367188 220.085938 419.105469 C 221.042969 417.628906 219.03125 417.878906 218.160156 417.480469 C 217.304688 416.828125 219.144531 415.546875 217.65625 414.976562 C 216.878906 414.679688 215.9375 414.542969 216.464844 413.324219 C 216.824219 413.417969 217.171875 413.675781 217.507812 413.390625 C 217.121094 412.929688 216.820312 413.214844 216.433594 413.476562 C 215.53125 412.621094 214.652344 411.746094 216.050781 410.855469 C 216.648438 410.257812 216.328125 408.730469 215.742188 408.824219 C 213.617188 409.078125 212.816406 407.222656 211.507812 406.265625 C 211.753906 405.800781 212.457031 405.425781 212.164062 404.851562 C 211.9375 404.921875 211.507812 404.992188 211.507812 405.066406 C 211.828125 406.320312 211.257812 407.382812 210.804688 408.539062 C 210.804688 408.539062 210.964844 408.578125 210.964844 408.578125 C 210.003906 407.441406 209.195312 406.238281 208.714844 404.820312 C 209.558594 404 211.859375 403.554688 210.75 402.054688 C 209.78125 401.539062 208.429688 403.984375 208.855469 404.871094 C 208.328125 405.222656 208.027344 406.125 207.128906 405.558594 C 206.382812 405.085938 206.375 404.523438 206.792969 403.800781 C 207.984375 402.058594 203.519531 402.359375 205.722656 400.042969 C 207.222656 399.050781 209.269531 397.683594 208.273438 395.570312 C 207.257812 394.109375 206.210938 392.652344 205.070312 391.289062 C 204.539062 390.652344 203.765625 391.074219 203.105469 391.3125 L 203.246094 391.355469 C 203.878906 389.472656 204.203125 387.285156 201.4375 388.28125 C 201.4375 388.28125 201.621094 388.328125 201.621094 388.328125 C 198.945312 383.945312 199.132812 388.21875 198.136719 386.828125 C 197.722656 385.527344 197.53125 384.171875 197.039062 382.875 C 196.785156 382.210938 198.210938 380.636719 199.058594 380.457031 C 200.109375 380.292969 202.765625 380.363281 202.292969 378.761719 C 201.949219 378.226562 201.257812 377.425781 200.847656 377.5 C 199.355469 377.757812 197.707031 377.351562 196.378906 378.464844 C 194.640625 380.292969 191.5625 373.800781 191.496094 372.335938 L 191.628906 372.09375 L 191.636719 372.375 C 191.234375 372.25 190.757812 372.21875 190.449219 371.976562 C 189.890625 371.535156 188.941406 372.582031 188.710938 371.558594 C 189.027344 369.976562 190.183594 368.09375 187.429688 367.832031 C 185.585938 367.992188 188.679688 369.339844 186.960938 370.824219 C 185.285156 372.496094 188.089844 371.742188 187.460938 373.386719 C 186.382812 375.027344 183.566406 375.894531 183.605469 378.023438 C 183.695312 378.773438 183.566406 379.335938 182.621094 379.539062 C 180.09375 379.78125 179.433594 383.605469 176.539062 382.5625 C 177.167969 381.964844 178.492188 381.753906 178.199219 380.675781 C 177.097656 380.5 177.144531 381.914062 176.675781 382.613281 C 176.023438 383.292969 175.097656 383.59375 174.785156 384.757812 C 174.332031 386.496094 173.046875 387.703125 171.382812 388.511719 C 169.800781 389.347656 169.824219 387.800781 168.984375 387 C 167.566406 389.203125 168.410156 390.46875 165.683594 392.515625 C 160.9375 393.292969 157.847656 399.339844 152.636719 397.84375 C 150.707031 397.644531 151.625 394.734375 149.457031 394.964844 C 148.015625 395.148438 147.589844 393.402344 146.0625 393.542969 C 145.066406 393.636719 144.003906 392.707031 142.925781 392.371094 C 141.972656 392.074219 141.398438 392.871094 140.707031 393.355469 C 139.839844 393.960938 138.175781 393.363281 137.96875 392.386719 C 137.890625 392.035156 138.019531 391.539062 138.230469 391.234375 C 139.851562 388.902344 141.378906 386.484375 143.222656 384.339844 C 144.585938 382.746094 146.273438 381.359375 148.027344 380.203125 C 148.808594 379.6875 149.605469 379.554688 150.054688 378.484375 C 151.339844 374.941406 152.839844 376.566406 153.484375 375.199219 C 152.875 371.03125 157.9375 370.597656 159.167969 367.324219 C 159.316406 366.886719 159.980469 366.476562 160.484375 366.320312 C 164.597656 365.648438 165.394531 359.601562 168.320312 360.675781 C 170.511719 361.230469 170.660156 357.765625 171.683594 356.460938 C 172.550781 354.609375 174.425781 356.277344 175.828125 356.34375 C 176.570312 356.445312 176.800781 355.675781 176.351562 354.738281 C 174.796875 350.96875 181.269531 351.804688 181.421875 348.132812 C 181.75 346.539062 182.996094 345.34375 184.554688 344.882812 C 187.410156 344.015625 189.128906 339.492188 185.964844 338.0625 C 184.710938 337.457031 183.441406 336.875 182.175781 336.28125 L 182.320312 336.328125 C 182.015625 335.832031 181.710938 335.335938 181.40625 334.847656 L 181.359375 335.015625 C 182.097656 334.527344 182.839844 334.042969 183.578125 333.558594 C 183.683594 333.566406 183.785156 333.578125 183.890625 333.589844 C 183.773438 333.625 183.660156 333.660156 183.542969 333.695312 C 182.59375 331.65625 184.746094 330.632812 181.621094 331.4375 C 182.113281 330.125 183.796875 329.785156 182.425781 328.269531 C 182.566406 327.863281 182.707031 327.460938 182.851562 327.054688 C 183.414062 327.070312 183.824219 327.003906 183.992188 326.394531 C 182.847656 326.03125 182.96875 327.609375 182.5625 328.308594 C 177.605469 330.238281 182.175781 322.988281 176.390625 325.914062 L 176.148438 325.828125 L 176.429688 325.773438 C 176.890625 326.621094 178.601562 328.433594 177.015625 328.824219 C 176.042969 329 174.421875 329.75 173.988281 328.449219 C 173.808594 327.214844 171.449219 322.851562 172.597656 322.28125 C 174.285156 322.367188 173.882812 325.582031 175.492188 322.367188 L 175.453125 322.515625 C 177.410156 321.601562 175.335938 318.804688 175.007812 320.082031 C 174.613281 321.144531 173.859375 321.222656 172.988281 320.71875 C 170.414062 319.597656 173.773438 317.363281 171.207031 316.847656 C 170.863281 316.78125 170.394531 316.382812 170.324219 316.0625 C 169.894531 314.089844 168.304688 312.308594 169.285156 310.082031 C 169.375 309.878906 169.160156 309.546875 169.085938 309.269531 C 169.085938 309.269531 169.046875 309.4375 169.046875 309.4375 C 169.480469 308.804688 169.371094 308.484375 168.550781 308.566406 L 168.714844 308.613281 C 169.054688 308.066406 169.394531 307.519531 169.734375 306.972656 C 170.835938 308.453125 173.066406 309.789062 172.273438 311.902344 C 172.097656 312.40625 171.675781 313.253906 171.824219 313.375 C 172.605469 314.007812 172.953125 313.015625 173.449219 312.691406 C 174.792969 311.480469 177.367188 309.753906 174.253906 308.660156 C 173.363281 308.222656 172.933594 307.648438 172.921875 306.746094 C 172.914062 305.890625 172.484375 305.429688 171.71875 305.289062 C 170.539062 305.113281 170.285156 306.421875 169.707031 307.140625 C 169.257812 306.59375 168.414062 306.027344 168.433594 305.5 C 168.488281 303.960938 167.144531 302.765625 167.566406 301.152344 C 167.648438 300.839844 167.007812 300.335938 166.699219 299.921875 L 166.644531 300.054688 C 167.179688 298.839844 168.066406 297.972656 169.253906 297.398438 C 169.792969 297.632812 170.261719 298.246094 170.675781 297.480469 C 170.257812 297.09375 169.710938 297.492188 169.21875 297.535156 C 164.691406 293.558594 166.214844 294.917969 170.5625 292.738281 C 170.664062 292.765625 170.765625 292.789062 170.867188 292.8125 C 169.324219 292.734375 167.707031 292.199219 166.148438 292.015625 C 163.582031 290.480469 167.613281 288.128906 169.367188 288.738281 L 169.089844 288.859375 C 168.996094 287.8125 169.050781 286.9375 170.347656 286.546875 C 172.132812 286.007812 173.652344 285.023438 174.820312 283.484375 C 176.628906 281.105469 177.675781 287 182.695312 287.355469 C 183.746094 287.535156 184.804688 288.3125 184.78125 289.230469 C 184.839844 292.746094 187.964844 295.214844 188.519531 298.421875 C 187.71875 301.488281 190.765625 303.539062 191.269531 306.078125 C 190.632812 308.136719 191.910156 309.664062 192.542969 311.332031 C 193.191406 313.023438 194.402344 314.472656 194.375 316.457031 C 194.707031 317.59375 196.546875 319.144531 196.296875 320.472656 C 195.9375 321.945312 196.367188 322.894531 197.363281 323.894531 C 199.515625 325.65625 199.003906 333.410156 202.972656 330.585938 C 204.214844 329.875 205.277344 327.738281 206.597656 327.347656 C 208.082031 327.875 208.632812 326.589844 209.480469 325.992188 C 212.34375 323.976562 215.300781 322.066406 217.503906 319.238281 C 218.097656 318.472656 218.839844 317.703125 219.691406 317.277344 C 223.480469 315.65625 226.101562 311.980469 230.042969 310.734375 C 231.738281 310.25 233.277344 309.867188 234.28125 308.289062 C 234.488281 307.960938 234.929688 307.675781 235.308594 307.589844 C 238.257812 306.910156 240.582031 304.894531 243.363281 303.871094 C 245.449219 302.753906 245.398438 306.1875 246.742188 304.707031 C 247.195312 304.171875 247.601562 303.585938 248.117188 303.125 C 249.496094 301.859375 252.539062 303.199219 251.648438 305.148438 C 251.347656 305.855469 251.773438 306.328125 252.238281 306.804688 C 252.683594 306.300781 252.976562 305.703125 253.285156 305.109375 C 255.222656 307.199219 256.507812 304.699219 258.445312 307.480469 C 258.277344 307.703125 258.109375 307.933594 257.941406 308.15625 C 258.066406 307.914062 258.1875 307.679688 258.3125 307.4375 C 259.523438 308.097656 260.40625 309.429688 261.441406 310.167969 C 262.402344 310.519531 263.675781 310.777344 263.855469 311.691406 C 264.625 315.019531 264.699219 320.417969 259.796875 319.859375 C 258.472656 319.652344 257.324219 319.660156 256.074219 320.078125 C 255.617188 320.234375 254.984375 320.070312 254.492188 319.886719 C 250.746094 318.253906 250.667969 323.296875 247.597656 322.386719 C 246.667969 322.160156 245.875 322.386719 245.675781 323.492188 C 245.324219 325.53125 242.359375 325.339844 242.328125 327.578125 C 242.21875 328.34375 242.105469 329.003906 241.132812 328.855469 C 240.230469 328.714844 239.03125 328.992188 238.957031 327.488281 C 238.949219 327.371094 238.800781 327.253906 238.714844 327.140625 C 239.699219 326.609375 240.636719 326.011719 241.53125 325.339844 C 238.035156 325.339844 238.40625 330.761719 236.273438 329.601562 C 236.402344 329.457031 236.550781 329.34375 236.433594 329.136719 C 236.429688 329.308594 236.429688 329.476562 236.425781 329.644531 C 235.390625 330.996094 233.457031 332.179688 232.664062 333.542969 C 232.300781 335.308594 230.957031 336.074219 229.761719 337.027344 C 226.917969 338.628906 227.71875 340.660156 225.84375 340.503906 C 224.109375 340.371094 223.207031 342.929688 221.789062 343.035156 C 220.515625 343.265625 217.121094 342.730469 217.640625 344.863281 C 217.742188 345.277344 218.382812 345.550781 218.777344 345.882812 C 217.960938 346.460938 217.203125 347.074219 216.664062 347.925781 C 214.296875 351.246094 211.925781 347.671875 211.234375 349.570312 C 211.183594 349.800781 211.695312 350.109375 211.832031 350.429688 C 211.964844 350.75 212.113281 351.265625 211.957031 351.460938 C 210.445312 352.207031 209.023438 353.304688 209.496094 355.328125 C 210.402344 360.515625 213.777344 364.785156 214.960938 369.957031 C 215.648438 372.652344 217.296875 375.089844 218.433594 377.679688 C 220.050781 382.695312 222.929688 387.046875 224.859375 391.875 C 226.183594 395.390625 227.410156 399.03125 229.210938 402.292969 C 229.425781 403.289062 229.457031 404.207031 230.546875 404.632812 C 231.027344 407.03125 232.394531 408.996094 233.625 411.042969 C 234.277344 414.589844 235.488281 418.070312 236.039062 421.707031 C 237.125 427.441406 237.84375 433.246094 236.441406 438.984375 C 236.234375 440.871094 234.648438 439.890625 233.398438 440.066406 Z M 155.222656 393.453125 L 155.402344 393.3125 C 155.371094 393.402344 155.320312 393.585938 155.3125 393.683594 Z M 189.945312 364.269531 C 189.988281 364.175781 190.027344 364.082031 190.070312 363.992188 C 190.105469 364.179688 190.078125 364.414062 189.988281 364.585938 C 189.984375 364.589844 189.945312 364.269531 189.945312 364.269531 Z M 187.296875 364.777344 L 187.472656 364.519531 C 187.476562 364.675781 187.402344 364.953125 187.320312 365.085938 Z M 178.1875 308.0625 C 178.296875 308.097656 178.410156 308.128906 178.519531 308.164062 C 178.394531 308.179688 178.269531 308.199219 178.144531 308.214844 L 177.863281 308.066406 Z M 180.804688 370.46875 L 180.558594 370.464844 C 181.367188 370.230469 182.378906 371 182.828125 369.96875 C 182.105469 369.609375 181.476562 370.246094 180.804688 370.46875 Z M 175.289062 374.699219 C 174.351562 374.710938 173.347656 374.359375 172.554688 375.183594 C 172.105469 374.898438 171.8125 374.742188 171.546875 375.347656 C 171.925781 375.371094 172.25 375.171875 172.589844 375.035156 C 174.214844 375.890625 174.457031 375.71875 175.25 374.421875 Z M 174.261719 364.351562 L 174.453125 364.367188 L 174.214844 364.476562 C 173.558594 364.320312 172.828125 363.46875 172.339844 364.300781 C 172.910156 364.652344 173.628906 364.328125 174.261719 364.351562 Z M 172.859375 368.890625 C 174.113281 368.890625 174.820312 368.460938 175.074219 367.1875 C 175.085938 367.164062 174.820312 366.957031 174.765625 366.988281 C 173.792969 367.390625 172.996094 368.082031 173.011719 369.214844 C 172.957031 369.105469 172.910156 369 172.859375 368.890625 Z M 193.800781 371.1875 C 193.550781 370.777344 193.40625 370.324219 192.816406 370.503906 C 193 370.9375 193.464844 370.921875 193.855469 371.050781 C 194.472656 372.300781 195.617188 373.777344 196.613281 371.988281 C 196.101562 370.480469 195 370.875 193.800781 371.1875 Z M 173.285156 300.132812 C 172.957031 299.851562 172.777344 299.578125 172.546875 299.519531 C 170.222656 298.691406 169.898438 300.988281 169.78125 302.730469 C 170.136719 302.742188 170.785156 302.828125 170.800781 302.753906 C 171.144531 300.933594 173.09375 301.777344 173.285156 300.132812 Z M 184.0625 365.179688 C 183.113281 364.320312 181.554688 364.128906 180.355469 363.632812 C 180.195312 363.582031 179.601562 364.300781 179.648438 364.378906 C 180.066406 365.035156 180.519531 366.042969 181.097656 366.140625 C 181.785156 366.1875 183.722656 365.914062 184.0625 365.179688 Z M 179.675781 376.363281 C 178.300781 375.328125 175.5625 378.285156 177.984375 378.628906 C 178.65625 378.003906 180.3125 377.476562 179.675781 376.363281 Z M 176.546875 315.304688 C 179.226562 314.023438 175.238281 312.652344 174.460938 314.386719 C 174.105469 314.976562 174.824219 315.738281 175.332031 315.832031 C 175.6875 315.855469 176.070312 315.527344 176.546875 315.304688 Z M 199.355469 373.609375 C 196.824219 373.699219 196.589844 375.015625 198.71875 375.773438 C 198.890625 375.191406 199.066406 374.605469 199.355469 373.609375 Z M 182.328125 373.527344 C 182.210938 374.3125 180.914062 375.714844 182.035156 376.140625 C 183.179688 375.785156 184.191406 373.632812 182.328125 373.527344 Z M 209.035156 343.292969 C 208.867188 343.464844 208.777344 343.558594 208.691406 343.648438 C 209.109375 343.746094 209.601562 344.335938 209.898438 343.792969 C 209.601562 343.621094 209.304688 343.449219 209.035156 343.292969 Z M 200.234375 381.929688 C 200.5 382.542969 200.445312 383.25 201.3125 382.929688 C 201.175781 382.164062 201.292969 381.691406 200.234375 381.929688 Z M 205.824219 390.0625 C 206.820312 390.835938 206.980469 390.503906 207.601562 389.804688 C 207.289062 388.816406 206.550781 389.765625 205.824219 390.0625 Z M 156.457031 388.65625 C 155.621094 387.585938 154.960938 388.710938 155.351562 389.550781 C 156.097656 390.171875 156.222656 389.144531 156.457031 388.65625 Z M 186.710938 331.480469 C 186.648438 331.714844 186.589844 331.945312 186.53125 332.175781 C 187.035156 332.363281 186.917969 331.875 187.039062 331.554688 C 186.929688 331.53125 186.820312 331.507812 186.710938 331.480469 Z M 163.941406 373.664062 C 163.644531 373.695312 163.578125 373.832031 163.609375 374.113281 C 163.863281 374.003906 164.148438 374.03125 163.941406 373.664062 Z M 159.054688 383.585938 C 158.589844 383.160156 158.527344 383.703125 158.25 383.988281 C 158.4375 384.101562 158.628906 384.214844 158.816406 384.332031 C 158.894531 384.074219 158.976562 383.828125 159.054688 383.585938 Z M 228.335938 431.394531 C 228.390625 431.28125 228.445312 431.164062 228.496094 431.050781 C 228.339844 431.015625 228.1875 430.984375 228.027344 430.949219 C 228 431.222656 228.003906 431.390625 228.335938 431.394531 Z M 167.628906 290.859375 L 167.382812 291.15625 L 167.757812 291.113281 Z M 170.238281 294.761719 L 170.234375 295.074219 L 170.464844 295 Z M 178.882812 313.871094 L 178.898438 313.597656 L 178.691406 313.667969 Z M 249.71875 304.027344 L 249.617188 303.789062 L 249.34375 304.070312 Z M 177.628906 352.910156 L 177.75 353.179688 L 178.003906 352.882812 Z M 180.609375 354.007812 L 180.859375 353.898438 L 180.609375 353.6875 Z M 234.625 327.398438 L 234.613281 327.707031 L 234.839844 327.632812 Z M 233.363281 330.9375 C 233.417969 330.835938 233.472656 330.734375 233.523438 330.628906 C 233.121094 330.433594 233.128906 330.710938 233.03125 331.003906 C 233.144531 330.980469 233.253906 330.960938 233.363281 330.9375 Z M 222.839844 339.671875 C 222.648438 339.753906 222.449219 339.832031 222.257812 339.914062 C 222.542969 340.015625 222.703125 339.933594 222.839844 339.671875 Z M 185.492188 362.398438 C 185.210938 362.429688 185.039062 362.425781 185.175781 362.785156 C 185.460938 362.753906 185.628906 362.753906 185.492188 362.398438 Z M 178.191406 372.476562 C 177.933594 372.394531 177.792969 372.476562 177.667969 372.703125 C 177.925781 372.789062 178.070312 372.707031 178.191406 372.476562 Z M 168.765625 378.851562 C 168.847656 378.75 168.921875 378.644531 169 378.542969 C 168.699219 378.453125 168.527344 378.539062 168.394531 378.824219 C 168.515625 378.832031 168.640625 378.839844 168.765625 378.851562 Z M 154.011719 395.863281 C 153.835938 395.9375 153.664062 396.015625 153.488281 396.09375 C 153.75 396.179688 153.894531 396.105469 154.011719 395.863281 Z M 213.859375 388.5625 L 213.855469 388.234375 L 213.621094 388.308594 Z M 208.753906 400.691406 C 208.792969 400.582031 208.835938 400.476562 208.875 400.375 C 208.769531 400.339844 208.660156 400.308594 208.550781 400.273438 C 208.511719 400.429688 208.472656 400.585938 208.429688 400.742188 C 208.535156 400.726562 208.640625 400.707031 208.753906 400.691406 Z M 212.105469 399.507812 C 211.789062 399.550781 211.222656 399.460938 211.285156 399.917969 C 211.832031 400.3125 211.964844 400.019531 212.105469 399.507812 Z M 187.101562 337.257812 L 187.121094 336.96875 L 186.878906 337.066406 Z M 200.902344 374.417969 L 201.226562 374.441406 L 201.121094 374.175781 Z M 200.902344 374.417969 " fill-opacity="1" fill-rule="nonzero"/></g></g></g><g clip-path="url(#efd8954842)"><g clip-path="url(#4819983b2a)"><g clip-path="url(#80f02b9c52)"><path fill="#ffb725" d="M 203.109375 391.316406 C 204.628906 392.808594 203.386719 395.382812 205.988281 395.953125 C 206.769531 397.015625 205.722656 397.429688 204.777344 397.425781 C 204.082031 397.3125 203.78125 395.847656 203.339844 395.542969 C 200.671875 394.804688 200.621094 392.273438 199.710938 390.347656 C 198.960938 388.742188 200.78125 388.957031 201.628906 388.332031 L 201.441406 388.285156 C 201.882812 389.261719 202.011719 390.207031 201.707031 391.246094 C 202.222656 391.28125 202.738281 391.320312 203.253906 391.355469 C 203.246094 391.363281 203.109375 391.316406 203.109375 391.316406 Z M 203.109375 391.316406 " fill-opacity="1" fill-rule="nonzero"/></g></g></g><g clip-path="url(#3aea342dc1)"><g clip-path="url(#bd5656cd73)"><g clip-path="url(#c188cdf73b)"><path fill="#ffb725" d="M 213.863281 415.777344 C 213.609375 415.179688 213.28125 414.550781 213.703125 413.90625 C 215.003906 414.15625 214.890625 415.652344 215.335938 416.648438 C 215.179688 417.738281 214.058594 416.242188 213.863281 415.777344 Z M 213.863281 415.777344 " fill-opacity="1" fill-rule="nonzero"/></g></g></g><g clip-path="url(#18dffe7464)"><g clip-path="url(#be8e1c2b73)"><g clip-path="url(#d03026e724)"><path fill="#ffb725" d="M 210.800781 408.546875 C 212.0625 410.113281 211.917969 411.125 209.664062 410.757812 C 208.984375 409.886719 210.496094 409.210938 210.964844 408.582031 Z M 210.800781 408.546875 " fill-opacity="1" fill-rule="nonzero"/></g></g></g><g clip-path="url(#5b47689c36)"><g clip-path="url(#7d921a7115)"><g clip-path="url(#a05705fcb9)"><path fill="#ffb725" d="M 182.179688 336.273438 C 181.84375 337.308594 181.894531 338.539062 181.097656 339.351562 C 180.355469 338.078125 181.722656 337.308594 182.324219 336.320312 C 182.324219 336.320312 182.179688 336.273438 182.179688 336.273438 Z M 182.179688 336.273438 " fill-opacity="1" fill-rule="nonzero"/></g></g></g><g clip-path="url(#c37f968fec)"><g clip-path="url(#346664cca2)"><g clip-path="url(#281e3d4655)"><path fill="#ffb725" d="M 177.675781 333.820312 C 180.625 337.648438 174.523438 336.320312 177.804688 333.867188 Z M 177.675781 333.820312 " fill-opacity="1" fill-rule="nonzero"/></g></g></g><g clip-path="url(#47f9627af2)"><g clip-path="url(#b48bd91a82)"><g clip-path="url(#86ee030d4f)"><path fill="#ffb725" d="M 186.023438 339.917969 C 185.761719 340.285156 185.648438 340.613281 185.5 340.628906 C 185.027344 340.671875 184.359375 340.9375 184.292969 340.09375 C 184.382812 338.902344 185.3125 339.757812 186.023438 339.917969 Z M 186.023438 339.917969 " fill-opacity="1" fill-rule="nonzero"/></g></g></g><g clip-path="url(#8b3b729a05)"><g clip-path="url(#4f9f47f5f6)"><g clip-path="url(#7f346cc1b5)"><path fill="#ffb725" d="M 180.410156 342.261719 C 181.878906 341.554688 181.996094 342.621094 180.933594 343.671875 C 180.789062 343.78125 180.445312 343.632812 180.195312 343.601562 C 180.273438 343.121094 180.351562 342.636719 180.410156 342.261719 Z M 180.410156 342.261719 " fill-opacity="1" fill-rule="nonzero"/></g></g></g><g clip-path="url(#c5edabd765)"><g clip-path="url(#a4a3b16af1)"><g clip-path="url(#e84ffd0e11)"><path fill="#ffb725" d="M 179.054688 332.28125 C 179.15625 331.695312 178.527344 330.324219 179.214844 330.140625 C 179.894531 330.398438 178.941406 331.648438 178.910156 332.222656 Z M 179.054688 332.28125 " fill-opacity="1" fill-rule="nonzero"/></g></g></g><g clip-path="url(#9422e093a0)"><g clip-path="url(#b9e19aff9c)"><g clip-path="url(#34502564e0)"><path fill="#ffb725" d="M 181.414062 334.839844 C 180.777344 334.90625 180.148438 335.167969 179.714844 334.527344 C 180.570312 333.859375 180.835938 334.316406 181.363281 335.007812 Z M 181.414062 334.839844 " fill-opacity="1" fill-rule="nonzero"/></g></g></g><g clip-path="url(#c9e356857f)"><g clip-path="url(#3146acfc2c)"><g clip-path="url(#fa9f03d30d)"><path fill="#ffb725" d="M 235.875 332.835938 C 235.527344 333.402344 235.242188 333.320312 234.792969 332.929688 C 235.1875 332.371094 235.386719 332.320312 235.875 332.835938 Z M 235.875 332.835938 " fill-opacity="1" fill-rule="nonzero"/></g></g></g><g clip-path="url(#5776433066)"><g clip-path="url(#7595a77ec7)"><g clip-path="url(#f1b39adcbc)"><path fill="#ffb725" d="M 196.859375 380.527344 C 196.703125 380.722656 196.539062 380.910156 196.378906 381.105469 C 195.734375 380.710938 195.894531 380.496094 196.320312 380.019531 C 196.5 380.191406 196.679688 380.359375 196.859375 380.527344 Z M 196.859375 380.527344 " fill-opacity="1" fill-rule="nonzero"/></g></g></g><g clip-path="url(#f9da43af7d)"><g clip-path="url(#0954f13fa0)"><g clip-path="url(#4a7d82b1f5)"><path fill="#ffb725" d="M 210.871094 412.828125 C 210.691406 412.972656 210.503906 413.113281 210.324219 413.257812 C 209.957031 412.867188 210.425781 412.753906 210.671875 412.503906 C 210.738281 412.613281 210.804688 412.722656 210.871094 412.828125 Z M 210.871094 412.828125 " fill-opacity="1" fill-rule="nonzero"/></g></g></g><g clip-path="url(#1b8ef03d3a)"><g clip-path="url(#4b1dcad0e1)"><g clip-path="url(#5fbbd90985)"><path fill="#ffb725" d="M 165.84375 298.363281 C 166.085938 298.042969 166.074219 297.238281 166.609375 297.519531 C 166.335938 297.851562 166.230469 298.421875 165.695312 298.339844 Z M 165.84375 298.363281 " fill-opacity="1" fill-rule="nonzero"/></g></g></g><g clip-path="url(#70e7d54aad)"><g clip-path="url(#e2c2e4e71e)"><g clip-path="url(#cd0c53d526)"><path fill="#ffb725" d="M 166.703125 299.914062 C 165.769531 299.757812 165.464844 299.246094 165.84375 298.363281 L 165.695312 298.339844 C 166.015625 298.910156 166.328125 299.476562 166.648438 300.046875 C 166.648438 300.046875 166.703125 299.914062 166.703125 299.914062 Z M 166.703125 299.914062 " fill-opacity="1" fill-rule="nonzero"/></g></g></g><g clip-path="url(#b81bc21e01)"><g clip-path="url(#60129a63bb)"><g clip-path="url(#8542c397d0)"><path fill="#ffb725" d="M 169.085938 309.269531 C 167.894531 310.296875 167.523438 309.085938 168.71875 308.613281 L 168.554688 308.5625 C 168.71875 308.851562 168.882812 309.144531 169.050781 309.433594 Z M 169.085938 309.269531 " fill-opacity="1" fill-rule="nonzero"/></g></g></g><g clip-path="url(#42c9f55c3c)"><g clip-path="url(#8a1b363004)"><g clip-path="url(#97b3880a11)"><path fill="#ffb725" d="M 177.203125 331.917969 C 177.128906 332 177.058594 332.082031 176.984375 332.164062 C 176.886719 332.054688 176.789062 331.945312 176.691406 331.835938 C 176.90625 331.722656 177.0625 331.660156 177.203125 331.917969 Z M 177.203125 331.917969 " fill-opacity="1" fill-rule="nonzero"/></g></g></g><g clip-path="url(#6a762a411f)"><g clip-path="url(#88f4e12e54)"><g clip-path="url(#1c5b73e3b3)"><path fill="#ffb725" d="M 178.90625 332.226562 C 179.140625 333.253906 178.324219 333.472656 177.675781 333.820312 L 177.804688 333.867188 C 178.222656 333.339844 178.636719 332.808594 179.054688 332.28125 Z M 178.90625 332.226562 " fill-opacity="1" fill-rule="nonzero"/></g></g></g><g clip-path="url(#f422fe00d1)"><g clip-path="url(#c6635ccd92)"><g clip-path="url(#ecc1ea079e)"><path fill="#ffb725" d="M 239.472656 330.117188 C 239.539062 330.03125 239.609375 329.945312 239.683594 329.855469 C 239.785156 329.976562 239.886719 330.097656 239.992188 330.214844 C 239.765625 330.328125 239.605469 330.386719 239.472656 330.117188 Z M 239.472656 330.117188 " fill-opacity="1" fill-rule="nonzero"/></g></g></g><g clip-path="url(#469c953429)"><g clip-path="url(#2f561cbceb)"><g clip-path="url(#dffc47aa77)"><path fill="#ffb725" d="M 175.496094 322.367188 C 175.386719 322.394531 175.28125 322.421875 175.171875 322.453125 C 175.265625 322.472656 175.359375 322.492188 175.453125 322.511719 Z M 175.496094 322.367188 " fill-opacity="1" fill-rule="nonzero"/></g></g></g><g clip-path="url(#f077a3221b)"><g clip-path="url(#cee0d0c0d1)"><g clip-path="url(#8f5c64f72a)"><path fill="#ffb725" d="M 215.410156 421.769531 C 215.394531 421.816406 215.378906 421.863281 215.367188 421.910156 Z M 215.410156 421.769531 " fill-opacity="1" fill-rule="nonzero"/></g></g></g><g clip-path="url(#bb2b91e95a)"><g clip-path="url(#92143fa21c)"><g clip-path="url(#1d852acf80)"><path fill="#ffb725" d="M 223.238281 425.261719 L 222.960938 425.164062 L 223.195312 425.398438 Z M 223.238281 425.261719 " fill-opacity="1" fill-rule="nonzero"/></g></g></g><g clip-path="url(#4ff7c3f2d3)"><g clip-path="url(#5b3bf03d9b)"><g clip-path="url(#83a561131a)"><path fill="#ffb725" d="M 221.441406 431.027344 C 221.476562 431.117188 221.515625 431.207031 221.550781 431.300781 C 221.5625 431.222656 221.570312 431.144531 221.582031 431.0625 Z M 221.441406 431.027344 " fill-opacity="1" fill-rule="nonzero"/></g></g></g><g clip-path="url(#cf4a83a739)"><g clip-path="url(#f4e32b6c46)"><g clip-path="url(#fd664fd795)"><path fill="#ffb725" d="M 228.148438 434.167969 C 228.164062 434.269531 228.1875 434.375 228.203125 434.472656 C 228.230469 434.386719 228.261719 434.296875 228.289062 434.207031 Z M 228.148438 434.167969 " fill-opacity="1" fill-rule="nonzero"/></g></g></g><g clip-path="url(#b38b67ce50)"><g clip-path="url(#ce6e25fbdf)"><g clip-path="url(#44aa497374)"><path fill="#ffb725" d="M 231.015625 435.710938 C 231.140625 435.28125 231.261719 434.847656 231.382812 434.417969 L 231.234375 434.398438 C 231.121094 434.820312 231 435.238281 230.882812 435.65625 Z M 231.015625 435.710938 " fill-opacity="1" fill-rule="nonzero"/></g></g></g><g clip-path="url(#51479451ed)"><g clip-path="url(#8754447b92)"><g clip-path="url(#94989ea09a)"><path fill="#ffb725" d="M 233.410156 440.066406 C 233.386719 440.230469 233.363281 440.394531 233.339844 440.558594 C 233.230469 440.328125 233.386719 440.230469 233.550781 440.105469 C 233.550781 440.105469 233.410156 440.066406 233.410156 440.066406 Z M 233.410156 440.066406 " fill-opacity="1" fill-rule="nonzero"/></g></g></g></svg>